HIERARCHY
ROOT Hips
{
	OFFSET -0.001795 -0.223333 0.028219
	CHANNELS 6 Xposition Yposition Zposition Zrotation Yrotation Xrotation 
	JOINT LeftUpLeg
	{
		OFFSET 0.069520 -0.091406 -0.006815
		CHANNELS 3 Zrotation Yrotation Xrotation
		JOINT LeftLeg
		{
			OFFSET 0.034277 -0.375199 -0.004496
			CHANNELS 3 Zrotation Yrotation Xrotation
			JOINT LeftFoot
			{
				OFFSET -0.013596 -0.397961 -0.043693
				CHANNELS 3 Zrotation Yrotation Xrotation
				JOINT LeftToe
				{
					OFFSET 0.026358 -0.055791 0.119288
					CHANNELS 3 Zrotation Yrotation Xrotation
					End Site
					{
						OFFSET 0.000000 0.000000 0.000000
					}
				}
			}
		}
	}
	JOINT RightUpLeg
	{
		OFFSET -0.067670 -0.090522 -0.004320
		CHANNELS 3 Zrotation Yrotation Xrotation
		JOINT RightLeg
		{
			OFFSET -0.038290 -0.382569 -0.008850
			CHANNELS 3 Zrotation Yrotation Xrotation
			JOINT RightFoot
			{
				OFFSET 0.015774 -0.398415 -0.042312
				CHANNELS 3 Zrotation Yrotation Xrotation
				JOINT RightToe
				{
					OFFSET -0.025372 -0.048144 0.123348
					CHANNELS 3 Zrotation Yrotation Xrotation
					End Site
					{
						OFFSET 0.000000 0.000000 0.000000
					}
				}
			}
		}
	}
	JOINT Spine
	{
		OFFSET -0.002533 0.108963 -0.026696
		CHANNELS 3 Zrotation Yrotation Xrotation
		JOINT Spine1
		{
			OFFSET 0.005487 0.135180 0.001092
			CHANNELS 3 Zrotation Yrotation Xrotation
			JOINT Spine2
			{
				OFFSET 0.001457 0.052922 0.025425
				CHANNELS 3 Zrotation Yrotation Xrotation
				JOINT Neck
				{
					OFFSET -0.002778 0.213870 -0.042857
					CHANNELS 3 Zrotation Yrotation Xrotation
					JOINT Head
					{
						OFFSET 0.005152 0.064970 0.051349
						CHANNELS 3 Zrotation Yrotation Xrotation
						End Site
						{
							OFFSET 0.000000 0.000000 0.000000
						}
					}
				}
				JOINT LeftShoulder
				{
					OFFSET 0.078845 0.121749 -0.034090
					CHANNELS 3 Zrotation Yrotation Xrotation
					JOINT LeftArm
					{
						OFFSET 0.090977 0.030469 -0.008868
						CHANNELS 3 Zrotation Yrotation Xrotation
						JOINT LeftForeArm
						{
							OFFSET 0.259612 -0.012772 -0.027456
							CHANNELS 3 Zrotation Yrotation Xrotation
							JOINT LeftHand
							{
								OFFSET 0.249234 0.008986 -0.001171
								CHANNELS 3 Zrotation Yrotation Xrotation
								End Site
								{
									OFFSET 0.000000 0.000000 0.000000
								}
							}
						}
					}
				}
				JOINT RightShoulder
				{
					OFFSET -0.081759 0.118833 -0.038615
					CHANNELS 3 Zrotation Yrotation Xrotation
					JOINT RightArm
					{
						OFFSET -0.096012 0.032551 -0.009143
						CHANNELS 3 Zrotation Yrotation Xrotation
						JOINT RightForeArm
						{
							OFFSET -0.253742 -0.013329 -0.021401
							CHANNELS 3 Zrotation Yrotation Xrotation
							JOINT RightHand
							{
								OFFSET -0.255298 0.007772 -0.005559
								CHANNELS 3 Zrotation Yrotation Xrotation
								End Site
								{
									OFFSET 0.000000 0.000000 0.000000
								}
							}
						}
					}
				}
			}
		}
	}
}
MOTION
Frames: 15
Frame Time: 0.050000
0.000000 0.954616 0.000000 -0.153224 -0.722838 3.383313 1.988032 0.130386 2.239584 -0.423484 0.245696 -6.524427 2.382078 8.909824 14.190094 0.000000 0.000000 0.000000 -2.725740 0.268472 -2.377775 0.397672 -0.071805 -0.849605 -2.407589 -10.196873 14.503575 0.000000 0.000000 0.000000 5.825832 -0.202942 1.013850 -5.672196 2.009338 -21.607239 -2.051418 5.137696 24.103379 8.287988 -3.199530 -20.974053 0.000000 0.000000 0.000000 -6.714359 -7.564736 2.347309 -10.851281 -1.994235 -1.477939 17.056306 -1.146920 -0.202369 0.000000 0.000000 0.000000 14.069760 -3.426452 -1.653567 13.398586 4.658538 -1.807557 -14.608734 7.025072 -0.273228 0.000000 0.000000 0.000000 
0.000151 0.953831 0.000971 -0.304889 -0.812017 3.701423 2.151216 0.149073 2.592635 -0.460638 0.281607 -7.615651 2.400060 8.936019 14.245082 0.000000 0.000000 0.000000 -2.557979 0.249306 -2.125655 0.047361 -0.044789 -1.017025 -1.727437 -8.591075 12.851926 0.000000 0.000000 0.000000 6.387059 -0.226685 1.031495 -6.608222 2.227695 -22.154274 -1.991453 5.682192 23.664371 8.462514 -3.142187 -21.450523 0.000000 0.000000 0.000000 -5.476406 -8.296759 2.628159 -10.697981 -2.391670 -1.422659 15.744302 0.664834 0.002312 0.000000 0.000000 0.000000 14.632666 -5.163396 -2.508869 13.073536 3.830011 -1.815608 -13.460163 8.547046 -0.356381 0.000000 0.000000 0.000000 
0.000115 0.953095 0.001623 -0.291982 -1.106686 3.574874 2.446371 0.148257 2.713879 -1.060328 0.304263 -7.429142 2.571140 9.116141 14.013533 0.000000 0.000000 0.000000 -2.761707 0.238334 -1.932656 0.429504 -0.084838 -1.137386 -1.748128 -8.612770 12.632225 0.000000 0.000000 0.000000 6.608797 -0.197660 0.710406 -6.946935 2.265162 -23.351314 -1.785392 6.671622 25.787815 9.453800 -3.560903 -22.350632 0.000000 0.000000 0.000000 -4.702228 -9.144428 2.945555 -10.240532 -2.606767 -1.386508 15.969643 2.393694 0.159576 0.000000 0.000000 0.000000 15.117349 -4.943841 -2.224764 12.564309 3.697191 -1.859496 -14.045733 6.136316 -0.156045 0.000000 0.000000 0.000000 
0.000009 0.952994 0.002110 -0.261463 -0.903445 3.384589 2.608011 0.164321 3.042713 -1.347724 0.321155 -7.628494 2.430296 8.922002 14.003815 0.000000 0.000000 0.000000 -2.799499 0.215272 -1.645677 0.628045 -0.107491 -1.257257 -2.054107 -9.179330 12.750906 0.000000 0.000000 0.000000 6.432115 -0.120759 0.004000 -6.974494 2.313136 -22.481873 -1.856170 6.464640 25.804844 8.921863 -3.156355 -22.770725 0.000000 0.000000 0.000000 -4.738416 -9.682110 3.150846 -10.418992 -1.952409 -1.425421 17.581690 2.917347 0.233109 0.000000 0.000000 0.000000 15.251146 -4.621596 -2.075514 11.879989 3.006286 -1.788062 -13.774256 5.411156 -0.092949 0.000000 0.000000 0.000000 
-0.000109 0.953488 0.002399 -0.405714 -0.892979 3.190618 2.818416 0.180545 3.404199 -1.420172 0.329335 -7.854203 2.376890 8.875309 14.157174 0.000000 0.000000 0.000000 -2.627654 0.193422 -1.417458 0.569877 -0.108980 -1.452804 -1.984371 -9.196407 13.353485 0.000000 0.000000 0.000000 6.050136 -0.111831 0.021214 -6.281393 2.149164 -22.148449 -2.120772 6.670679 25.058891 9.497396 -3.703034 -21.429254 0.000000 0.000000 0.000000 -5.126226 -9.968160 3.217900 -10.078596 -2.065101 -1.353188 18.168921 3.165970 0.261635 0.000000 0.000000 0.000000 15.600235 -4.395525 -1.942095 11.866927 2.635512 -1.788352 -13.261353 5.178873 -0.061185 0.000000 0.000000 0.000000 
-0.000152 0.953899 0.002430 -0.409219 -1.030054 2.860919 2.650780 0.203727 3.580475 -1.133891 0.309103 -7.494163 2.452550 8.979738 14.159773 0.000000 0.000000 0.000000 -3.041496 0.192730 -1.313221 0.974123 -0.136476 -1.166839 -1.463277 -8.366521 13.740453 0.000000 0.000000 0.000000 5.938735 -0.098736 -0.030659 -6.517023 2.235573 -21.432084 -1.983772 6.230068 24.932957 9.228118 -3.495404 -22.057638 0.000000 0.000000 0.000000 -5.175402 -10.009791 3.277449 -10.539687 -1.924133 -1.430189 19.220835 3.280057 0.308619 0.000000 0.000000 0.000000 15.315873 -3.986522 -1.817095 12.789431 2.877600 -1.872426 -13.862689 5.149383 -0.070971 0.000000 0.000000 0.000000 
-0.000192 0.953921 0.002275 -0.436782 -1.193325 2.692331 2.887354 0.205747 3.739268 -1.522011 0.325846 -7.421059 2.513854 9.054935 14.157356 0.000000 0.000000 0.000000 -3.056025 0.191969 -1.301804 1.061872 -0.140407 -1.037436 -1.456485 -8.426228 13.925703 0.000000 0.000000 0.000000 5.797984 -0.117565 0.236910 -6.375115 2.213053 -20.959438 -2.214121 6.153537 24.449761 9.398258 -3.681471 -21.661415 0.000000 0.000000 0.000000 -5.665040 -9.929589 3.243157 -10.767294 -1.818629 -1.455017 20.054390 3.000949 0.288646 0.000000 0.000000 0.000000 15.518136 -3.917726 -1.834642 13.246771 2.778413 -1.911661 -13.828930 5.745866 -0.125204 0.000000 0.000000 0.000000 
-0.000195 0.953966 0.002106 -0.510821 -1.527903 2.760580 2.874881 0.191555 3.483424 -1.425645 0.314606 -7.040525 2.725278 9.333215 14.109069 0.000000 0.000000 0.000000 -3.068448 0.211192 -1.530443 1.310585 -0.154186 -0.738394 -1.473803 -8.416163 13.587963 0.000000 0.000000 0.000000 5.957455 -0.103250 0.050147 -6.736530 2.313277 -20.641593 -2.092721 6.028583 24.642089 9.702921 -3.962123 -21.539935 0.000000 0.000000 0.000000 -6.977569 -9.930615 3.261354 -10.946593 -1.477893 -1.503716 21.330935 2.599991 0.260015 0.000000 0.000000 0.000000 16.379474 -3.716375 -1.819376 14.120260 3.264999 -1.997667 -14.792778 5.796111 -0.153474 0.000000 0.000000 0.000000 
-0.000181 0.953755 0.001844 -0.501809 -1.907669 2.707939 2.978987 0.195733 3.556519 -1.704717 0.330133 -7.003541 2.908148 9.572544 14.107855 0.000000 0.000000 0.000000 -3.203171 0.226394 -1.680719 1.504704 -0.171407 -0.734818 -1.410392 -8.452527 13.949217 0.000000 0.000000 0.000000 5.827722 -0.102619 0.084542 -6.825376 2.338024 -20.469489 -1.971777 6.148876 24.635101 9.835768 -4.093575 -21.372936 0.000000 0.000000 0.000000 -8.296415 -9.935579 3.257467 -11.492345 -1.231362 -1.588619 22.703310 1.841119 0.156755 0.000000 0.000000 0.000000 17.245798 -3.660281 -1.852351 15.517361 3.484056 -2.155651 -15.937495 6.720576 -0.271178 0.000000 0.000000 0.000000 
-0.000148 0.953786 0.001468 -0.511793 -2.045214 2.668643 3.213757 0.183190 3.501471 -2.128055 0.349847 -6.837964 2.965713 9.643677 14.101870 0.000000 0.000000 0.000000 -3.225629 0.243278 -1.904999 1.438105 -0.162431 -0.650088 -1.273278 -8.397945 14.584186 0.000000 0.000000 0.000000 5.682596 -0.108526 0.186640 -6.971874 2.380460 -20.352540 -1.968227 5.922322 24.766494 10.115282 -4.331383 -21.351955 0.000000 0.000000 0.000000 -9.595277 -9.400058 3.049794 -12.631920 -1.298168 -1.753413 23.634204 0.497754 -0.050094 0.000000 0.000000 0.000000 18.642574 -3.575129 -1.937062 16.735434 4.057298 -2.257680 -16.711716 7.130109 -0.340782 0.000000 0.000000 0.000000 
-0.000025 0.953436 0.001034 -0.586320 -2.394323 2.644714 3.419700 0.168557 3.357817 -2.430632 0.363361 -6.494351 3.176899 9.903861 13.953457 0.000000 0.000000 0.000000 -3.301931 0.255852 -2.036259 1.854751 -0.201545 -0.701495 -1.460223 -8.845963 14.839629 0.000000 0.000000 0.000000 5.704377 -0.104930 0.157568 -7.111330 2.414597 -20.255357 -1.881153 6.017067 24.833075 10.059933 -4.266744 -21.584824 0.000000 0.000000 0.000000 -11.112325 -9.131814 2.918527 -13.907015 -1.096336 -1.944951 24.043998 -1.161393 -0.328473 0.000000 0.000000 0.000000 19.817910 -3.386185 -1.918420 18.708430 4.618456 -2.437157 -17.433022 8.021344 -0.459069 0.000000 0.000000 0.000000 
0.000240 0.953118 0.000636 -0.646256 -2.839959 2.823641 3.526461 0.162411 3.280985 -2.629035 0.380100 -6.637211 3.403877 10.210846 13.980313 0.000000 0.000000 0.000000 -3.286939 0.293960 -2.524320 2.279692 -0.233775 -0.462123 -1.963738 -9.795656 14.843642 0.000000 0.000000 0.000000 5.753996 -0.074504 -0.206522 -7.186347 2.437934 -19.953318 -1.765604 6.026253 24.857100 10.092912 -4.382594 -21.279992 0.000000 0.000000 0.000000 -12.589180 -8.708574 2.736710 -15.857342 -0.653493 -2.263038 23.933250 -3.232924 -0.661662 0.000000 0.000000 0.000000 21.353906 -2.966608 -1.834172 20.450997 5.000116 -2.577899 -18.156907 9.300591 -0.642740 0.000000 0.000000 0.000000 
0.000653 0.952662 0.000366 -0.747086 -3.162275 2.898138 3.584707 0.163043 3.285499 -2.654536 0.385161 -6.728900 3.593542 10.454581 13.892479 0.000000 0.000000 0.000000 -3.293301 0.307505 -2.681409 2.793846 -0.280843 -0.529708 -2.447732 -10.684526 14.845234 0.000000 0.000000 0.000000 5.776494 -0.059316 -0.378614 -7.088566 2.406315 -19.869596 -1.671021 6.198330 24.962529 9.836919 -4.176609 -21.497284 0.000000 0.000000 0.000000 -14.305593 -8.340014 2.516866 -17.744638 -0.185136 -2.580831 23.673819 -5.093119 -0.956487 0.000000 0.000000 0.000000 22.791971 -2.819492 -1.833235 22.521905 5.662249 -2.725628 -18.913744 10.512448 -0.818467 0.000000 0.000000 0.000000 
0.001118 0.952222 0.000111 -0.828543 -3.307997 2.963902 3.681977 0.158436 3.258188 -2.755161 0.392614 -6.789339 3.693476 10.572315 13.771270 0.000000 0.000000 0.000000 -3.186857 0.327181 -2.960055 3.189707 -0.312696 -0.261407 -3.173223 -11.920483 14.651815 0.000000 0.000000 0.000000 5.962112 -0.044934 -0.558288 -7.096182 2.410506 -19.718344 -1.720089 6.077179 24.954557 9.934957 -4.293066 -21.359277 0.000000 0.000000 0.000000 -16.036825 -8.249820 2.457667 -19.729958 0.619991 -2.972646 23.046107 -6.632859 -1.154488 0.000000 0.000000 0.000000 24.182336 -2.417307 -1.730702 24.091693 6.151533 -2.806041 -19.321545 11.667712 -0.988048 0.000000 0.000000 0.000000 
0.001575 0.951887 -0.000150 -0.941564 -3.236594 3.056976 3.727316 0.149783 3.175549 -2.657236 0.387302 -6.857538 3.696386 10.561098 13.633159 0.000000 0.000000 0.000000 -3.250284 0.322536 -2.879903 4.014825 -0.391656 -0.526750 -3.938566 -13.185813 14.425923 0.000000 0.000000 0.000000 6.140493 -0.021033 -0.840127 -7.079236 2.411182 -19.572375 -1.606515 6.120020 25.070502 9.795250 -4.075858 -21.982348 0.000000 0.000000 0.000000 -17.401986 -8.300027 2.411996 -21.934532 1.189332 -3.387752 22.247601 -7.999376 -1.307259 0.000000 0.000000 0.000000 25.227820 -2.210196 -1.625036 25.958801 6.380186 -2.966658 -19.803346 12.493186 -1.107432 0.000000 0.000000 0.000000 
